<mxfile host="app.diagrams.net" agent="Mozilla/5.0 (Windows NT 10.0; Win64; x64) AppleWebKit/537.36 (KHTML, like Gecko) Chrome/129.0.0.0 Safari/537.36" version="24.8.0">
  <diagram id="AdvancedAzureDataPipeline" name="Advanced Azure Data Pipeline Diagram">
    <mxGraphModel dx="1290" dy="522" grid="1" gridSize="10" guides="1" tooltips="1" connect="1" arrows="1" fold="1" page="1" pageScale="1" pageWidth="2000" pageHeight="1500" background="#ffffff" math="0" shadow="0">
      <root>
        <mxCell id="0" />
        <mxCell id="1" parent="0" />
        <mxCell id="2" value="Data Producer (Python Script)" style="rounded=1;whiteSpace=wrap;html=1;fillColor=#dae8fc;strokeColor=#6c8ebf;" parent="1" vertex="1">
          <mxGeometry x="50" y="200" width="150" height="60" as="geometry" />
        </mxCell>
        <mxCell id="3" value="Azure Blob Storage" style="shape=mxgraph.azure.storage_accounts;whiteSpace=wrap;html=1;fillColor=#f8cecc;strokeColor=#b85450;" parent="1" vertex="1">
          <mxGeometry x="250" y="100" width="150" height="80" as="geometry" />
        </mxCell>
        <mxCell id="4" value="Azure Event Hub" style="shape=cloud;whiteSpace=wrap;html=1;fillColor=#fff2cc;strokeColor=#d6b656;" parent="1" vertex="1">
          <mxGeometry x="250" y="250" width="150" height="60" as="geometry" />
        </mxCell>
        <mxCell id="5" value="Azure Data Factory" style="shape=mxgraph.azure.data_factory;whiteSpace=wrap;html=1;fillColor=#d5e8d4;strokeColor=#82b366;" parent="1" vertex="1">
          <mxGeometry x="450" y="100" width="150" height="80" as="geometry" />
        </mxCell>
        <mxCell id="6" value="Data Consumer (Python Script on Azure VM)" style="rounded=1;whiteSpace=wrap;html=1;fillColor=#d5e8d4;strokeColor=#82b366;" parent="1" vertex="1">
          <mxGeometry x="450" y="250" width="200" height="60" as="geometry" />
        </mxCell>
        <mxCell id="7" value="Azure Function" style="shape=mxgraph.azure.azure_functions;whiteSpace=wrap;html=1;fillColor=#e1d5e7;strokeColor=#9673a6;" parent="1" vertex="1">
          <mxGeometry x="700" y="100" width="150" height="80" as="geometry" />
        </mxCell>
        <mxCell id="8" value="Azure SQL Database (Serverless)" style="shape=cylinder;whiteSpace=wrap;html=1;fillColor=#f8cecc;strokeColor=#b85450;" parent="1" vertex="1">
          <mxGeometry x="700" y="250" width="150" height="80" as="geometry" />
        </mxCell>
        <mxCell id="9" value="Schema Creator (Python Script)" style="rounded=1;whiteSpace=wrap;html=1;fillColor=#e1d5e7;strokeColor=#9673a6;" parent="1" vertex="1">
          <mxGeometry x="700" y="400" width="150" height="60" as="geometry" />
        </mxCell>
        <mxCell id="10" value="Azure Key Vault" style="shape=mxgraph.azure.key_vaults;whiteSpace=wrap;html=1;fillColor=#fff2cc;strokeColor=#d6b656;" parent="1" vertex="1">
          <mxGeometry x="450" y="400" width="150" height="80" as="geometry" />
        </mxCell>
        <mxCell id="11" value="SQL Server Management Studio (SSMS)" style="rounded=1;whiteSpace=wrap;html=1;fillColor=#fff2cc;strokeColor=#d6b656;" parent="1" vertex="1">
          <mxGeometry x="900" y="250" width="200" height="60" as="geometry" />
        </mxCell>
        <mxCell id="12" value="Data Visualization (Power BI)" style="rounded=1;whiteSpace=wrap;html=1;fillColor=#fff2cc;strokeColor=#d6b656;" parent="1" vertex="1">
          <mxGeometry x="1150" y="110" width="200" height="60" as="geometry" />
        </mxCell>
        <mxCell id="13" value="Azure Monitor" style="shape=mxgraph.azure.monitor;whiteSpace=wrap;html=1;fillColor=#fff2cc;strokeColor=#d6b656;" parent="1" vertex="1">
          <mxGeometry x="900" y="100" width="150" height="80" as="geometry" />
        </mxCell>
        <mxCell id="14" style="endArrow=block;html=1;strokeWidth=2;" parent="1" source="2" target="3" edge="1">
          <mxGeometry relative="1" as="geometry" />
        </mxCell>
        <mxCell id="15" style="endArrow=block;html=1;strokeWidth=2;" parent="1" source="2" target="4" edge="1">
          <mxGeometry relative="1" as="geometry" />
        </mxCell>
        <mxCell id="16" style="endArrow=block;html=1;strokeWidth=2;" parent="1" source="3" target="5" edge="1">
          <mxGeometry relative="1" as="geometry" />
        </mxCell>
        <mxCell id="17" style="endArrow=block;html=1;strokeWidth=2;" parent="1" source="5" target="7" edge="1">
          <mxGeometry relative="1" as="geometry" />
        </mxCell>
        <mxCell id="18" style="endArrow=block;html=1;strokeWidth=2;" parent="1" source="4" target="6" edge="1">
          <mxGeometry relative="1" as="geometry" />
        </mxCell>
        <mxCell id="19" style="endArrow=block;html=1;strokeWidth=2;" parent="1" source="6" target="8" edge="1">
          <mxGeometry relative="1" as="geometry" />
        </mxCell>
        <mxCell id="20" style="endArrow=block;html=1;strokeWidth=2;" parent="1" source="7" target="8" edge="1">
          <mxGeometry relative="1" as="geometry" />
        </mxCell>
        <mxCell id="21" style="endArrow=block;html=1;dashed=1;strokeWidth=2;" parent="1" source="9" target="8" edge="1">
          <mxGeometry relative="1" as="geometry" />
        </mxCell>
        <mxCell id="22" style="endArrow=open;html=1;dashed=1;strokeWidth=2;" parent="1" source="10" target="6" edge="1">
          <mxGeometry relative="1" as="geometry" />
        </mxCell>
        <mxCell id="23" style="endArrow=open;html=1;dashed=1;strokeWidth=2;" parent="1" source="10" target="7" edge="1">
          <mxGeometry relative="1" as="geometry" />
        </mxCell>
        <mxCell id="24" style="endArrow=block;html=1;dashed=1;strokeWidth=2;" parent="1" source="8" target="11" edge="1">
          <mxGeometry relative="1" as="geometry" />
        </mxCell>
        <mxCell id="25" style="endArrow=block;html=1;strokeWidth=2;" parent="1" source="8" target="12" edge="1">
          <mxGeometry relative="1" as="geometry" />
        </mxCell>
        <mxCell id="26" style="endArrow=block;html=1;dashed=1;strokeWidth=2;" parent="1" source="8" target="13" edge="1">
          <mxGeometry relative="1" as="geometry" />
        </mxCell>
      </root>
    </mxGraphModel>
  </diagram>
</mxfile>
